<svg width="40" height="40" viewBox="0 0 40 40" fill="none" xmlns="http://www.w3.org/2000/svg">
<rect width="39.995" height="40" rx="4" fill="url(#paint0_linear_3537_38698)"/>
<path fill-rule="evenodd" clip-rule="evenodd" d="M8.79311 8.55408C8.14896 7.29562 7.94557 6.20652 8.23663 4.8717C8.8283 2.14717 10.9122 1.44337 13.3809 2.41377C14.4819 2.84559 15.3849 3.57981 16.1752 4.43331C19.4355 3.42868 22.9427 3.58186 26.1029 4.86692L26.3451 4.92657C27.337 3.73727 28.9402 2.82889 30.4361 2.63624C32.5099 2.36844 34.524 2.84321 34.7119 5.28801C34.7793 6.16656 34.4859 7.24373 34.1107 8.03578L33.4898 9.34794L33.3306 9.29545C33.7445 10.0112 34.1 10.7269 34.3123 11.3651C34.6171 12.2788 34.9988 13.7431 34.7149 14.7117L34.66 14.8996L34.5736 15.0493C34.3857 15.3928 34.1721 16.0841 34.3046 16.4635C34.8414 17.9981 34.4728 20.0564 33.4749 21.3399C33.3426 21.5097 33.1977 21.6692 33.0413 21.8171C32.931 22.1296 32.798 22.4893 32.6554 22.8835C32.6655 22.9432 32.6733 23.0028 32.6805 23.0666C33.7582 22.995 34.7811 23.1125 35.8016 23.7776C35.8016 23.7776 33.7254 23.7627 32.7073 23.8969C32.7009 24.0261 32.69 24.1555 32.6745 24.2851C33.933 24.5631 35.0644 25.0295 35.9967 26.1383C35.9967 26.1383 33.6234 25.4023 32.4777 25.2257C32.2606 25.9415 31.8979 26.5975 31.4041 27.0902C31.2896 27.6501 31.217 28.2176 31.187 28.7883C31.5847 28.9059 31.9953 28.9746 32.4097 28.9928C34.9744 29.0728 37.0249 27.9789 37.0249 27.9789C36.1571 39.041 19.3483 39.4603 11.8928 35.1785C2.15535 29.5881 1.79629 16.575 8.79132 8.5517" fill="#0F111A"/>
<path fill-rule="evenodd" clip-rule="evenodd" d="M26.2228 25.6176C26.2228 25.6176 25.4099 25.524 24.0649 25.9928C22.7199 26.4616 22.0311 26.7747 21.2807 26.6185C20.5304 26.4622 20.2483 25.7739 20.2483 25.7739C20.2483 25.7739 20.8447 25.3355 21.969 25.1482C23.0933 24.961 24.3148 24.8983 24.3148 24.8983C24.3148 24.8983 22.3466 24.5858 21.4686 24.6484C20.5907 24.7111 20.123 24.9299 20.123 24.9299C20.123 24.9299 19.9358 24.4295 20.2173 24.179C20.4988 23.9285 21.5933 23.7412 22.3752 23.7412C22.8565 23.7421 23.3371 23.7734 23.8144 23.8349C23.8144 23.8349 22.5315 23.2384 21.5306 23.1788C20.5298 23.1192 20.0604 23.242 20.0604 23.242C20.0604 23.242 20.2483 22.7106 20.6569 22.5263C21.0654 22.342 21.3768 22.3068 21.9094 22.4631C22.442 22.6193 23.1917 22.9635 23.1917 22.9635C23.1917 22.9635 22.1909 22.0873 21.6589 21.9627C21.3619 21.8894 21.058 21.8474 20.7523 21.8374L21.3774 21.2118C21.3774 21.2118 20.4398 21.1807 19.532 22.1816C18.6242 23.1824 18.8407 24.7725 18.8407 24.7725C18.8407 24.7725 18.3397 24.21 16.4007 23.1466C14.4617 22.0831 14.0233 21.0513 13.8664 19.7994C13.7095 18.5475 13.9606 17.7661 13.9606 17.7661C13.9606 17.7661 12.0735 18.8994 11.5421 21.464C10.1595 28.1292 12.0837 30.4106 14.6388 33.7119C15.5931 34.9483 11.625 32.5608 10.3534 31.2665C5.12145 25.9344 3.77767 15.5205 12.2119 8.87621C12.2119 8.87621 13.4227 8.0412 12.5262 6.69626C11.6298 5.35129 11.1174 5.02683 10.6695 5.47595C10.2216 5.92507 10.4136 8.16466 10.4136 8.16466C10.4136 8.16466 9.51899 6.69268 9.83749 5.22008C10.156 3.74747 10.9898 3.23513 12.7827 3.93893C14.5756 4.64272 15.9838 6.75591 16.6237 7.65235C17.2637 8.54877 17.3281 8.74142 17.3281 8.74142L17.1361 6.62827C17.1361 6.62827 18.0307 6.05211 22.0656 6.05211C26.1006 6.05211 28.2119 7.39648 28.2119 7.39648L27.4437 6.17975C27.4437 6.17975 28.6605 4.51449 30.6454 4.25862C32.6304 4.00275 33.0145 4.5795 33.0783 5.41153C33.1421 6.24356 32.6298 7.33207 32.6298 7.33207C32.6298 7.33207 32.9495 5.73182 31.9892 5.79564C31.0289 5.85946 30.1969 7.58853 30.1969 7.58853C30.1969 7.58853 32.1818 10.1496 32.758 11.8775C33.3342 13.6054 33.1421 14.2465 33.1421 14.2465C33.1421 14.2465 32.3101 15.7192 32.758 16.9991C33.2059 18.2791 32.6292 19.7523 32.1812 20.3284C31.7333 20.9046 31.3492 20.9684 31.3492 20.9684L29.4925 20.5205C29.4925 20.5205 30.2607 21.0972 30.9013 22.6331C31.3462 23.7007 30.9872 24.9848 30.405 25.7119C30.3102 26.9131 29.8921 28.1907 29.1334 28.9493C29.316 28.2199 29.3058 27.2113 29.1585 26.2898C28.2501 26.2218 27.1902 25.6421 27.1902 25.6421C27.1902 25.6421 27.2541 24.618 28.2787 23.9124C29.3034 23.2068 29.1066 21.9788 29.6237 21.6078C30.1408 21.2368 29.047 21.9281 27.2541 22.1201C25.4612 22.3122 23.9892 21.6078 23.9892 21.6078C23.9892 21.6078 23.9892 22.4398 24.8838 23.0804C25.7785 23.721 27.1908 25.6421 26.2228 25.6176Z" fill="#F2F2F2"/>
<path fill-rule="evenodd" clip-rule="evenodd" d="M12.7823 3.93843C11.7051 3.51376 10.9751 3.53166 10.4938 3.93127H10.495C11.0675 4.02372 11.788 4.33625 12.6374 5.09731C14.9635 7.18067 15.5325 8.74455 15.5325 8.74455L17.326 8.73501C17.3105 8.69863 17.2037 8.46482 16.6234 7.65185C16.5833 7.59576 16.5403 7.53491 16.4943 7.46994C15.8057 6.49656 14.463 4.59875 12.7823 3.93843ZM28.2125 7.39585L28.2088 7.38994H28.2081V7.38891L27.4437 6.17971C27.4437 6.17971 28.6605 4.51446 30.6454 4.25859C32.5003 4.02001 32.9572 4.5073 33.061 5.25166C31.2025 5.03097 29.5313 6.22027 28.2125 7.39585ZM17.1359 6.62828L17.2271 7.62851L17.2301 7.62791C21.0019 6.67092 24.0504 6.97536 27.4485 7.31471C27.6973 7.33956 27.948 7.3646 28.201 7.38934C28.0334 7.28675 25.9321 6.05212 22.0654 6.05212C18.0305 6.05212 17.1359 6.62828 17.1359 6.62828ZM12.2128 8.87211C6.80492 13.1337 5.38361 18.7837 6.46317 23.8099H6.46555C6.47946 23.576 6.46964 23.4037 6.45963 23.2281C6.42287 22.5828 6.38354 21.8925 7.50872 17.9356C8.33454 15.0315 10.2472 12.9019 11.661 11.3278C12.6979 10.1733 13.4664 9.31758 13.3413 8.67409C13.1012 7.43975 13.0021 7.35726 12.8643 7.24245C12.8323 7.2158 12.7982 7.18741 12.7597 7.14246C13.1564 8.2202 12.2128 8.87211 12.2128 8.87211Z" fill="white"/>
<path fill-rule="evenodd" clip-rule="evenodd" d="M23.8853 18.2677C23.8853 18.2677 23.2936 15.3088 22.7288 14.8251C22.1639 14.3414 19.9583 13.3489 18.9366 13.5344C17.9149 13.7199 17.538 14.7983 17.538 14.7983C17.538 14.7983 18.3449 15.2015 18.9366 15.6333C19.5283 16.0651 19.6893 16.3323 20.5768 16.4939C21.1125 16.5904 21.6626 16.5721 22.1908 16.4403C22.1908 16.4403 22.9435 18.0268 23.8853 18.2689" fill="#0F111A"/>
<path fill-rule="evenodd" clip-rule="evenodd" d="M28.8606 18.106C28.8606 18.106 28.0811 15.1477 28.1347 14.8787C28.1884 14.6097 29.3181 13.9912 29.9902 13.857C30.6624 13.7228 31.0931 13.6417 31.5499 14.0723C31.6837 14.1991 31.7869 14.3544 31.8521 14.5266C31.9173 14.6989 31.9426 14.8837 31.9263 15.0672C31.6441 15.1472 31.3854 15.2944 31.1724 15.496C30.8497 15.8181 30.5533 16.4366 30.0696 16.5696C29.7812 16.6506 29.4804 16.6779 29.1821 16.6501L28.8606 18.106Z" fill="#0F111A"/>
<path fill-rule="evenodd" clip-rule="evenodd" d="M28.8883 15.3888C28.8883 15.3888 29.2372 15.8176 29.8981 15.7186V15.718C30.4426 15.6357 30.7367 15.1323 30.856 14.6444L30.1283 14.8514C30.1283 14.8514 30.0585 15.1305 29.8581 15.2689C29.6577 15.4073 29.199 15.2361 29.199 15.2361L28.8883 15.3888ZM22.5344 15.5433C22.5344 15.5433 22.1682 16.1355 21.326 16.12L21.3266 16.1182C20.6324 16.1051 20.1833 15.5236 19.9548 14.9337L20.8978 15.0739C20.8978 15.0739 21.0296 15.4109 21.3028 15.551C21.576 15.6912 22.1211 15.4031 22.1211 15.4031L22.5344 15.5433Z" fill="#F11012"/>
<path fill-rule="evenodd" clip-rule="evenodd" d="M17.5376 14.7982C17.5376 14.7982 19.0472 17.0438 20.5711 17.6611C22.095 18.2784 23.8849 18.2671 23.8849 18.2671C22.9431 18.025 22.1904 16.4384 22.1904 16.4384C21.6622 16.5703 21.1121 16.5886 20.5764 16.4921C19.6889 16.3305 19.5279 16.0621 18.9362 15.6314C18.3446 15.2008 17.5376 14.7964 17.5376 14.7964V14.7982ZM28.4625 25.0552L29.8343 25.5174C30.2577 25.0163 30.4759 24.3738 30.4451 23.7186C30.3956 22.6128 30.0652 22.1678 30.0652 22.1678C30.0652 22.1678 30.0652 23.1084 29.4878 23.5873C28.9105 24.0663 28.4625 25.0552 28.4625 25.0552ZM21.1812 21.4008L21.3745 21.2075C21.3745 21.2075 20.4363 21.1765 19.5291 22.1774C18.6219 23.1782 18.8408 24.7731 18.8408 24.7731C18.8408 24.7731 18.341 24.21 16.4014 23.1466C14.4617 22.0831 14.024 21.0513 13.8671 19.8C13.7102 18.5486 13.9613 17.7661 13.9613 17.7661C7.24604 23.0219 14.5858 34.7467 23.6338 35.9157C15.0832 35.6986 8.41566 32.5041 6.49036 23.8605C8.18484 20.4411 12.9838 14.7803 16.5087 14.6938C16.5087 14.6938 14.3484 17.6432 15.8413 19.2978C17.5185 21.1563 19.0567 19.2238 21.4192 21.1831L21.1812 21.4008ZM24.0006 26.016C22.9556 26.384 20.9057 27.3807 20.2484 25.7745C20.2484 25.7745 20.8448 25.3367 21.9691 25.1488C23.0934 24.9609 24.3149 24.8989 24.3149 24.8989C24.3149 24.8989 22.3467 24.5864 21.4687 24.649C20.5907 24.7116 20.1237 24.9299 20.1237 24.9299C20.1237 24.9299 19.9359 24.4301 20.2174 24.1796C20.4989 23.9291 21.5934 23.7418 22.3753 23.7418C22.8566 23.7427 23.3372 23.7739 23.8145 23.8355C23.8145 23.8355 22.5316 23.239 21.5307 23.1794C20.5299 23.1197 20.0605 23.239 20.0605 23.239C20.0605 23.239 20.2484 22.7076 20.6569 22.5197C21.0655 22.3318 21.3768 22.3008 21.9095 22.4601C22.0973 22.5197 22.2942 22.5996 22.485 22.6623C22.6789 22.7589 22.9735 22.8603 23.1912 22.9605L23.1357 22.9134C23.7483 23.1782 24.3083 23.4859 24.3083 23.4859C24.3083 23.4859 23.7334 23.273 23.3397 22.3682C22.9538 21.4819 23.267 20.4077 23.2801 20.3642C23.3397 20.1256 23.8067 19.5155 23.9767 19.327C23.8902 20.8467 23.7626 22.3813 24.8863 23.0845C25.8501 23.6869 27.1909 25.6451 26.2259 25.6206C26.2259 25.6206 25.4129 25.527 24.068 25.9958L24.0006 26.016ZM30.1642 19.9801L31.2378 20.3105C31.2378 20.3105 31.8992 19.7534 32.2088 19.0926C32.5183 18.4317 32.3734 17.9158 32.3734 17.9158C32.3734 17.9158 30.8888 19.8351 30.1642 19.9795V19.9801ZM30.9771 15.7257C30.8781 16.0519 30.5924 16.7545 30.0306 17.1929L28.861 18.1061L29.1836 16.6537C29.4819 16.6815 29.7828 16.6542 30.0711 16.5732L30.089 16.5679H30.0938L30.1069 16.5637L30.1159 16.5601L30.1248 16.5571L30.1379 16.5523H30.1421L30.1594 16.5458L30.1761 16.538H30.1803L30.1928 16.5321L30.2017 16.5279L30.2095 16.5243L30.2226 16.5178H30.2262L30.2429 16.5088L30.2584 16.4999H30.2638L30.2751 16.4933L30.2841 16.4873L30.2912 16.4832L30.3037 16.4748L30.3198 16.4641L30.3342 16.4539L30.3389 16.4504L30.3497 16.4426L30.3586 16.436L30.3652 16.4313L30.3777 16.4211L30.3932 16.4092L30.4069 16.3979L30.4123 16.3937L30.4218 16.3853L30.4308 16.3776L30.4367 16.3728L30.4493 16.3609L30.4713 16.3311L30.4839 16.3191L30.4892 16.3144L30.4982 16.3054L30.5071 16.2965L30.5125 16.2917L30.5244 16.2792L30.5387 16.2649L30.5507 16.2517L30.556 16.2464L30.5644 16.2374L30.5733 16.2273L30.5781 16.2225L30.5906 16.2088L30.6043 16.1933L30.6157 16.1808L30.6216 16.1742L30.6294 16.1653L30.6383 16.1551L30.6425 16.1498L30.655 16.1348L30.6682 16.1199V16.1164L30.6789 16.1038L30.6849 16.0967L30.6914 16.0877L30.7004 16.0764L30.7045 16.0716L30.7165 16.0567L30.729 16.0406V16.037L30.7391 16.0251L30.7451 16.0173L30.7517 16.0084L30.7606 15.9971L30.7642 15.9923L30.7767 15.9762L30.7886 15.9601V15.9559L30.7982 15.9434L30.8047 15.9356L30.8107 15.9273L30.8203 15.9154V15.9112L30.8322 15.8951L30.8447 15.879L30.8477 15.8748L30.8566 15.8629L30.8632 15.8545L30.8686 15.8468L30.8781 15.8342V15.8307L30.89 15.8152L30.902 15.7996L30.9055 15.7955L30.9145 15.7841L30.9205 15.7758L30.9264 15.7686L30.9354 15.7561L30.9771 15.7257Z" fill="#E6E6E6"/>
<defs>
<linearGradient id="paint0_linear_3537_38698" x1="19.9975" y1="0" x2="19.9975" y2="40" gradientUnits="userSpaceOnUse">
<stop stop-color="#F0047F"/>
<stop offset="1" stop-color="#FC814A"/>
</linearGradient>
</defs>
</svg>
